<?xml version="1.0" encoding="UTF-8"?><svg viewBox="0 0 98 48" xmlns="http://www.w3.org/2000/svg" xmlns:xlink="http://www.w3.org/1999/xlink"><style>:root>svg{display:none}:root>svg:target{display:block}</style><svg viewBox="0 0 98 48" id="ritz_logo_dark" xmlns="http://www.w3.org/2000/svg"><defs><path id="aa" d="M0 0h33.546v26.57H0z"/><path id="ac" d="M0 0h4.715v6.492H0z"/><path id="ae" d="M0 48h98V0H0z"/></defs><g fill="none" fill-rule="evenodd"><path fill="#1A1A1A" d="M27.897 35.679h8.263l1.972-26.542h-8.233zM30.565 0l-.388 5.863h8.152L38.717 0z"/><g><g transform="translate(64.454 9.11)"><mask id="ab" fill="#fff"><use xlink:href="#aa"/></mask><path d="M33.546 26.57H0c0-2.866 3.463-6.065 4.472-7.026L19.476 5.693H7.893c-2.524 0-3.652-2.404-4.273-3.605-.355-.686-.51-.977-1.03-2.088h30.87c-.14.495-.372 1.209-.582 1.82-.21.61-.478 1.255-.803 1.882-.326.626-.736 1.295-2.789 3.571L15.314 20.84H27.87c2.593 0 3.359 1.944 5.676 5.73" fill="#1A1A1A" mask="url(#ab)"/></g><path d="M12.454 21.445s2.81-.095 4.355 2.323l7.344 11.911h-7.26c-4.147 0-5.576-2.821-6.024-3.53l-6.794-10.7L0 21.445l1.901-3.158c.543-.886 1.146-1.547 1.809-1.976 0 0 1.219-.81 3.72-.84 2.068-.024 5.182-.117 5.182-.117 1.709-.013 2.716-.826 3.402-1.604.586-.666 1.122-1.788 1.107-3.076a4.507 4.507 0 00-1.096-2.953c-.917-1.078-2.17-1.634-3.44-1.617l-7.802-.006-3.821.018 1.89-3.125C3.397 2.104 4 1.447 4.662 1.02 5.323.589 6.555.009 8.896.009L14.946 0c7.475 0 10.156 6.358 10.156 10.66 0 4.048-1.584 10.785-10.928 10.785h-1.72zM62.964 9.11l-1.816 4.045c-.285.545-.522 1.674-4.064 1.674h-8.86s1.46 1.57 1.31 3.396l-.822 10.669c-.035.47-.083.751.119.935.176.16.491.156.783.156H60.5l-.37 5.694H42.437c-2.71 0-2.213-3.163-2.132-4.29L42.622 0h8.213l-.66 9.11h12.789zM10.323 47.91h-.891l-2.42-3.057-1.341 1.362v1.695h-.71v-6.312h.71v3.769l3.617-3.77h.918l-2.7 2.76zM14.939 42.392l-1.44 3.219h2.87l-1.43-3.22zm3.212 5.518h-.765l-.738-1.668H13.22l-.747 1.668h-.729l2.87-6.357h.667l2.87 6.357zM21.984 47.91h-.71v-2.498l-2.62-3.814h.864l2.12 3.156 2.137-3.156h.827l-2.618 3.806zM28.31 42.392l-1.44 3.219h2.87l-1.43-3.22zm3.212 5.518h-.765l-.738-1.668h-3.428l-.747 1.668h-.729l2.87-6.357h.667l2.87 6.357zM39.026 47.91h-.89l-2.421-3.057-1.34 1.362v1.695h-.711v-6.312h.71v3.769l3.617-3.77h.918l-2.699 2.76z" fill="#1A1A1A"/><g transform="translate(40.538 41.508)"><mask id="ad" fill="#fff"><use xlink:href="#ac"/></mask><path d="M1.026 2.067c.048.12.134.23.26.33.127.099.3.189.522.27.222.082.507.158.855.231.702.156 1.22.373 1.553.65.333.277.5.66.5 1.147 0 .27-.055.518-.16.74a1.677 1.677 0 01-.442.57 1.975 1.975 0 01-.677.36 2.84 2.84 0 01-.864.127 3.76 3.76 0 01-1.38-.245A3.893 3.893 0 010 5.491l.44-.523c.33.3.664.525 1 .672.335.148.723.22 1.16.22.426 0 .767-.099 1.022-.297.255-.199.382-.46.382-.786 0-.15-.024-.284-.072-.402a.81.81 0 00-.253-.32 1.798 1.798 0 00-.5-.262 6.394 6.394 0 00-.816-.226 6.463 6.463 0 01-.943-.271 2.325 2.325 0 01-.663-.37 1.352 1.352 0 01-.388-.506 1.704 1.704 0 01-.126-.686A1.576 1.576 0 01.828.492a2.1 2.1 0 01.657-.361C1.736.044 2.012 0 2.312 0c.463 0 .866.064 1.21.191.346.128.68.319 1.004.576l-.414.55a3.082 3.082 0 00-.887-.524 2.7 2.7 0 00-.93-.162 1.77 1.77 0 00-.554.081 1.397 1.397 0 00-.423.217.928.928 0 00-.27.325.895.895 0 00-.094.407c0 .15.024.285.072.406" fill="#1A1A1A" mask="url(#ad)"/></g><path d="M49.575 45.039a.792.792 0 01-.714.475.782.782 0 01-.775-.777c0-.108.02-.208.061-.304a.794.794 0 01.412-.412.748.748 0 01.604 0 .792.792 0 01.412.412.753.753 0 01.061.303c0 .107-.02.208-.061.303M55.826 46.179h-.037l-2.294-3.373v5.104h-.693v-6.312h.72l2.295 3.445 2.294-3.445h.72v6.312h-.711v-5.113zM64.166 42.392l-1.44 3.219h2.871l-1.43-3.22zm3.213 5.518h-.766l-.737-1.668h-3.428L61.7 47.91h-.729l2.87-6.357h.667l2.87 6.357zM73.37 42.587c-.282-.22-.68-.33-1.19-.33H70.23v2.569h1.94c.234 0 .45-.03.649-.09a1.6 1.6 0 00.514-.258c.145-.112.257-.25.339-.412.08-.163.121-.346.121-.552 0-.398-.141-.707-.424-.927zm.487 5.323l-1.826-2.453h-1.8v2.453h-.71v-6.312h2.707c.348 0 .662.046.94.136.28.09.518.218.716.383.198.166.351.364.46.595.107.232.161.49.161.772 0 .264-.042.5-.126.708a1.621 1.621 0 01-.355.54 1.988 1.988 0 01-.545.384c-.21.103-.438.175-.684.217l1.935 2.577h-.873z" fill="#1A1A1A"/><mask id="af" fill="#fff"><use xlink:href="#ae"/></mask><path fill="#1A1A1A" mask="url(#af)" d="M76.99 47.91h.71v-6.312h-.71zM85.077 41.598h.694v6.312h-.568l-4.067-5.175v5.175h-.693v-6.312h.666l3.968 5.059zM93.005 42.247h-3.843v2.156H92.6v.649h-3.438v2.208h3.887v.65h-4.597v-6.312h4.553z"/></g></g></svg><svg viewBox="0 0 98 48" id="ritz_logo_light" xmlns="http://www.w3.org/2000/svg"><defs><path id="ba" d="M0 0h33.546v26.57H0z"/><path id="bc" d="M0 0h4.715v6.492H0z"/><path id="be" d="M0 48h98V0H0z"/></defs><g fill="none" fill-rule="evenodd"><path fill="#FFF" d="M27.897 35.679h8.263l1.972-26.542h-8.233zM30.565 0l-.388 5.863h8.152L38.717 0z"/><g><g transform="translate(64.454 9.11)"><mask id="bb" fill="#fff"><use xlink:href="#ba"/></mask><path d="M33.546 26.57H0c0-2.866 3.463-6.065 4.472-7.026L19.476 5.693H7.893c-2.524 0-3.652-2.404-4.273-3.605-.355-.686-.51-.977-1.03-2.088h30.87c-.14.495-.372 1.209-.582 1.82-.21.61-.478 1.255-.803 1.882-.326.626-.736 1.295-2.789 3.571L15.314 20.84H27.87c2.593 0 3.359 1.944 5.676 5.73" fill="#FFF" mask="url(#bb)"/></g><path d="M12.454 21.445s2.81-.095 4.355 2.323l7.344 11.911h-7.26c-4.147 0-5.576-2.821-6.024-3.53l-6.794-10.7L0 21.445l1.901-3.158c.543-.886 1.146-1.547 1.809-1.976 0 0 1.219-.81 3.72-.84 2.068-.024 5.182-.117 5.182-.117 1.709-.013 2.716-.826 3.402-1.604.586-.666 1.122-1.788 1.107-3.076a4.507 4.507 0 00-1.096-2.953c-.917-1.078-2.17-1.634-3.44-1.617l-7.802-.006-3.821.018 1.89-3.125C3.397 2.104 4 1.447 4.662 1.02 5.323.589 6.555.009 8.896.009L14.946 0c7.475 0 10.156 6.358 10.156 10.66 0 4.048-1.584 10.785-10.928 10.785h-1.72zM62.964 9.11l-1.816 4.045c-.285.545-.522 1.674-4.064 1.674h-8.86s1.46 1.57 1.31 3.396l-.822 10.669c-.035.47-.083.751.119.935.176.16.491.156.783.156H60.5l-.37 5.694H42.437c-2.71 0-2.213-3.163-2.132-4.29L42.622 0h8.213l-.66 9.11h12.789zM10.323 47.91h-.891l-2.42-3.057-1.341 1.362v1.695h-.71v-6.312h.71v3.769l3.617-3.77h.918l-2.7 2.76zM14.939 42.392l-1.44 3.219h2.87l-1.43-3.22zm3.212 5.518h-.765l-.738-1.668H13.22l-.747 1.668h-.729l2.87-6.357h.667l2.87 6.357zM21.984 47.91h-.71v-2.498l-2.62-3.814h.864l2.12 3.156 2.137-3.156h.827l-2.618 3.806zM28.31 42.392l-1.44 3.219h2.87l-1.43-3.22zm3.212 5.518h-.765l-.738-1.668h-3.428l-.747 1.668h-.729l2.87-6.357h.667l2.87 6.357zM39.026 47.91h-.89l-2.421-3.057-1.34 1.362v1.695h-.711v-6.312h.71v3.769l3.617-3.77h.918l-2.699 2.76z" fill="#FFF"/><g transform="translate(40.538 41.508)"><mask id="bd" fill="#fff"><use xlink:href="#bc"/></mask><path d="M1.026 2.067c.048.12.134.23.26.33.127.099.3.189.522.27.222.082.507.158.855.231.702.156 1.22.373 1.553.65.333.277.5.66.5 1.147 0 .27-.055.518-.16.74a1.677 1.677 0 01-.442.57 1.975 1.975 0 01-.677.36 2.84 2.84 0 01-.864.127 3.76 3.76 0 01-1.38-.245A3.893 3.893 0 010 5.491l.44-.523c.33.3.664.525 1 .672.335.148.723.22 1.16.22.426 0 .767-.099 1.022-.297.255-.199.382-.46.382-.786 0-.15-.024-.284-.072-.402a.81.81 0 00-.253-.32 1.798 1.798 0 00-.5-.262 6.394 6.394 0 00-.816-.226 6.463 6.463 0 01-.943-.271 2.325 2.325 0 01-.663-.37 1.352 1.352 0 01-.388-.506 1.704 1.704 0 01-.126-.686A1.576 1.576 0 01.828.492a2.1 2.1 0 01.657-.361C1.736.044 2.012 0 2.312 0c.463 0 .866.064 1.21.191.346.128.68.319 1.004.576l-.414.55a3.082 3.082 0 00-.887-.524 2.7 2.7 0 00-.93-.162 1.77 1.77 0 00-.554.081 1.397 1.397 0 00-.423.217.928.928 0 00-.27.325.895.895 0 00-.094.407c0 .15.024.285.072.406" fill="#FFF" mask="url(#bd)"/></g><path d="M49.575 45.039a.792.792 0 01-.714.475.782.782 0 01-.775-.777c0-.108.02-.208.061-.304a.794.794 0 01.412-.412.748.748 0 01.604 0 .792.792 0 01.412.412.753.753 0 01.061.303c0 .107-.02.208-.061.303M55.826 46.179h-.037l-2.294-3.373v5.104h-.693v-6.312h.72l2.295 3.445 2.294-3.445h.72v6.312h-.711v-5.113zM64.166 42.392l-1.44 3.219h2.871l-1.43-3.22zm3.213 5.518h-.766l-.737-1.668h-3.428L61.7 47.91h-.729l2.87-6.357h.667l2.87 6.357zM73.37 42.587c-.282-.22-.68-.33-1.19-.33H70.23v2.569h1.94c.234 0 .45-.03.649-.09a1.6 1.6 0 00.514-.258c.145-.112.257-.25.339-.412.08-.163.121-.346.121-.552 0-.398-.141-.707-.424-.927zm.487 5.323l-1.826-2.453h-1.8v2.453h-.71v-6.312h2.707c.348 0 .662.046.94.136.28.09.518.218.716.383.198.166.351.364.46.595.107.232.161.49.161.772 0 .264-.042.5-.126.708a1.621 1.621 0 01-.355.54 1.988 1.988 0 01-.545.384c-.21.103-.438.175-.684.217l1.935 2.577h-.873z" fill="#FFF"/><mask id="bf" fill="#fff"><use xlink:href="#be"/></mask><path fill="#FFF" mask="url(#bf)" d="M76.99 47.91h.71v-6.312h-.71zM85.077 41.598h.694v6.312h-.568l-4.067-5.175v5.175h-.693v-6.312h.666l3.968 5.059zM93.005 42.247h-3.843v2.156H92.6v.649h-3.438v2.208h3.887v.65h-4.597v-6.312h4.553z"/></g></g></svg></svg>